<svg xmlns="http://www.w3.org/2000/svg" viewBox="0 0 550 192" width="550" height="192">
  <style>text { font-family: -apple-system, BlinkMacSystemFont, 'Segoe UI', Roboto, sans-serif; }</style>
  <rect width="100%" height="100%" fill="#0a0e14" rx="8"/>
  <rect x="320" y="8" width="140" height="22" fill="#1c2128" rx="4"/><rect x="320" y="8" width="140.0" height="22" fill="#58a6ff" rx="4" opacity="0.85"/><text x="312" y="23" text-anchor="end" font-size="11" fill="#c9d1d9">reponomics-dashboard-super-long-private-mirror</text><text x="468" y="23" font-size="10" fill="#e6edf3">3.3k <tspan fill="#6e7681">30%</tspan></text><rect x="320" y="38" width="140" height="22" fill="#1c2128" rx="4"/><rect x="320" y="38" width="106.6" height="22" fill="#58a6ff" rx="4" opacity="0.85"/><text x="312" y="53" text-anchor="end" font-size="11" fill="#c9d1d9">collector-migration-compatibility-fixtures</text><text x="468" y="53" font-size="10" fill="#e6edf3">2.5k <tspan fill="#6e7681">23%</tspan></text><rect x="320" y="68" width="140" height="22" fill="#1c2128" rx="4"/><rect x="320" y="68" width="75.4" height="22" fill="#58a6ff" rx="4" opacity="0.85"/><text x="312" y="83" text-anchor="end" font-size="11" fill="#c9d1d9">release-note-policy-validation-toolkit</text><text x="468" y="83" font-size="10" fill="#e6edf3">1.8k <tspan fill="#6e7681">16%</tspan></text><rect x="320" y="98" width="140" height="22" fill="#1c2128" rx="4"/><rect x="320" y="98" width="62.2" height="22" fill="#58a6ff" rx="4" opacity="0.85"/><text x="312" y="113" text-anchor="end" font-size="11" fill="#c9d1d9">plain-artifact-export-verification-service</text><text x="468" y="113" font-size="10" fill="#e6edf3">1.5k <tspan fill="#6e7681">13%</tspan></text><rect x="320" y="128" width="140" height="22" fill="#1c2128" rx="4"/><rect x="320" y="128" width="51.7" height="22" fill="#58a6ff" rx="4" opacity="0.85"/><text x="312" y="143" text-anchor="end" font-size="11" fill="#c9d1d9">community-health-profile-snapshotter</text><text x="468" y="143" font-size="10" fill="#e6edf3">1.2k <tspan fill="#6e7681">11%</tspan></text><rect x="320" y="158" width="140" height="22" fill="#1c2128" rx="4"/><rect x="320" y="158" width="30.0" height="22" fill="#58a6ff" rx="4" opacity="0.85"/><text x="312" y="173" text-anchor="end" font-size="11" fill="#c9d1d9">really-small-but-noisy-repo</text><text x="468" y="173" font-size="10" fill="#e6edf3">709 <tspan fill="#6e7681">6%</tspan></text>
</svg>
