<svg xmlns="http://www.w3.org/2000/svg" viewBox="0 0 570 180" width="570" height="180">
  <style>text { font-family: -apple-system, BlinkMacSystemFont, 'Segoe UI', Roboto, sans-serif; }</style>
  <rect width="100%" height="100%" fill="#0a0e14" rx="8"/>
  <path d="M 90.0 12.0 A 78 78 0 0 1 164.1 114.3 L 130.8 103.4 A 42.900000000000006 42.900000000000006 0 0 0 90.0 47.1 Z" fill="#58a6ff" opacity="0"><animate attributeName="opacity" values="0;0.9;0.9;0" keyTimes="0;0.030;0.92;1" dur="12s" repeatCount="indefinite"/><title>enterprise-observability-labs/reponomics-dashboard-super-long-private-mirror: 3,309 (30.0%)</title></path><path d="M 164.1 114.3 A 78 78 0 0 1 75.7 166.7 L 82.1 132.2 A 42.900000000000006 42.900000000000006 0 0 0 130.8 103.4 Z" fill="#3fb950" opacity="0"><animate attributeName="opacity" values="0;0.9;0.9;0" keyTimes="0;0.037;0.92;1" dur="12s" repeatCount="indefinite"/><title>research-platform-team/collector-migration-compatibility-fixtures: 2,520 (22.9%)</title></path><path d="M 75.7 166.7 A 78 78 0 0 1 17.3 118.1 L 50.0 105.5 A 42.900000000000006 42.900000000000006 0 0 0 82.1 132.2 Z" fill="#CC79A7" opacity="0"><animate attributeName="opacity" values="0;0.9;0.9;0" keyTimes="0;0.043;0.92;1" dur="12s" repeatCount="indefinite"/><title>developer-experience/release-note-policy-validation-toolkit: 1,783 (16.2%)</title></path><path d="M 17.3 118.1 A 78 78 0 0 1 20.4 54.7 L 51.7 70.6 A 42.900000000000006 42.900000000000006 0 0 0 50.0 105.5 Z" fill="#ffa657" opacity="0"><animate attributeName="opacity" values="0;0.9;0.9;0" keyTimes="0;0.050;0.92;1" dur="12s" repeatCount="indefinite"/><title>platform-infra/plain-artifact-export-verification-service: 1,470 (13.3%)</title></path><path d="M 20.4 54.7 A 78 78 0 0 1 59.3 18.3 L 73.1 50.6 A 42.900000000000006 42.900000000000006 0 0 0 51.7 70.6 Z" fill="#f85149" opacity="0"><animate attributeName="opacity" values="0;0.9;0.9;0" keyTimes="0;0.057;0.92;1" dur="12s" repeatCount="indefinite"/><title>maintainer-tools/community-health-profile-snapshotter: 1,221 (11.1%)</title></path><path d="M 59.3 18.3 A 78 78 0 0 1 90.0 12.0 L 90.0 47.1 A 42.900000000000006 42.900000000000006 0 0 0 73.1 50.6 Z" fill="#1f6feb" opacity="0"><animate attributeName="opacity" values="0;0.9;0.9;0" keyTimes="0;0.063;0.92;1" dur="12s" repeatCount="indefinite"/><title>archive/really-small-but-noisy-repo: 709 (6.4%)</title></path>
  <text x="90" y="88" text-anchor="middle" font-size="18" font-weight="700" fill="#e6edf3">11.0k</text><text x="90" y="104" text-anchor="middle" font-size="9" fill="#6e7681">total views</text>
  <circle cx="202" cy="14" r="5" fill="#58a6ff"/><text x="214" y="18" font-size="10" fill="#e6edf3" font-weight="600" font-variant-numeric="tabular-nums">30.0%</text><text x="252" y="18" font-size="11" fill="#8b949e">reponomics-dashboard-super-long-private-mirror</text><circle cx="202" cy="36" r="5" fill="#3fb950"/><text x="214" y="40" font-size="10" fill="#e6edf3" font-weight="600" font-variant-numeric="tabular-nums">22.9%</text><text x="252" y="40" font-size="11" fill="#8b949e">collector-migration-compatibility-fixtures</text><circle cx="202" cy="58" r="5" fill="#CC79A7"/><text x="214" y="62" font-size="10" fill="#e6edf3" font-weight="600" font-variant-numeric="tabular-nums">16.2%</text><text x="252" y="62" font-size="11" fill="#8b949e">release-note-policy-validation-toolkit</text><circle cx="202" cy="80" r="5" fill="#ffa657"/><text x="214" y="84" font-size="10" fill="#e6edf3" font-weight="600" font-variant-numeric="tabular-nums">13.3%</text><text x="252" y="84" font-size="11" fill="#8b949e">plain-artifact-export-verification-service</text><circle cx="202" cy="102" r="5" fill="#f85149"/><text x="214" y="106" font-size="10" fill="#e6edf3" font-weight="600" font-variant-numeric="tabular-nums">11.1%</text><text x="252" y="106" font-size="11" fill="#8b949e">community-health-profile-snapshotter</text><circle cx="202" cy="124" r="5" fill="#1f6feb"/><text x="214" y="128" font-size="10" fill="#e6edf3" font-weight="600" font-variant-numeric="tabular-nums">6.4%</text><text x="252" y="128" font-size="11" fill="#8b949e">really-small-but-noisy-repo</text>
</svg>
