<svg xmlns="http://www.w3.org/2000/svg" viewBox="0 0 520 100" width="520" height="100">
  <style>text { font-family: -apple-system, BlinkMacSystemFont, 'Segoe UI', Roboto, sans-serif; }</style>
  <defs>
    <linearGradient id="sparkFill" x1="0" y1="0" x2="0" y2="1">
      <stop offset="0%" stop-color="#0969da" stop-opacity="0.25"/>
      <stop offset="100%" stop-color="#0969da" stop-opacity="0.02"/>
    </linearGradient>
  </defs>
  <rect width="100%" height="100%" fill="#ffffff" rx="8"/>
  <line x1="8" y1="65.5" x2="512" y2="65.5" stroke="#d8dee4" stroke-width="1"/><line x1="8" y1="51.0" x2="512" y2="51.0" stroke="#d8dee4" stroke-width="1"/><line x1="8" y1="36.5" x2="512" y2="36.5" stroke="#d8dee4" stroke-width="1"/>
  <polygon points="8,80 8.0,46.0 41.6,62.0 75.2,38.0 108.8,42.0 142.4,80.0 176.0,34.0 209.6,52.0 243.2,44.0 276.8,28.0 310.4,44.0 344.0,62.0 377.6,54.0 411.2,34.0 444.8,28.0 478.4,22.0 512.0,42.0 512,80" fill="url(#sparkFill)" />
  <polyline points="8.0,46.0 41.6,62.0 75.2,38.0 108.8,42.0 142.4,80.0 176.0,34.0 209.6,52.0 243.2,44.0 276.8,28.0 310.4,44.0 344.0,62.0 377.6,54.0 411.2,34.0 444.8,28.0 478.4,22.0 512.0,42.0" fill="none" stroke="#0969da" stroke-width="2" stroke-linecap="round" stroke-linejoin="round" stroke-dasharray="2000" stroke-dashoffset="2000"><animate attributeName="stroke-dashoffset" values="2000;0;0;2000" keyTimes="0;0.1;0.92;1" dur="12s" repeatCount="indefinite" calcMode="spline" keySplines="0.4 0 0.2 1;0.4 0 0.2 1;0.4 0 0.2 1"/></polyline>
  <circle cx="478.4" cy="22.0" r="3" fill="#0969da" opacity="0"><animate attributeName="opacity" values="0;0;1;1;0" keyTimes="0;0.08;0.1;0.92;1" dur="12s" repeatCount="indefinite"/></circle><text x="478.4" y="14.0" text-anchor="middle" font-size="10" fill="#1f2328" font-weight="600" opacity="0">29<animate attributeName="opacity" values="0;0;1;1;0" keyTimes="0;0.09;0.11;0.92;1" dur="12s" repeatCount="indefinite"/></text>
  <circle cx="512.0" cy="42.0" r="2.5" fill="#57606a"/><text x="506.0" y="35.0" text-anchor="end" font-size="9" fill="#57606a">19</text>
  <text x="8" y="96" font-size="9" fill="#6e7781">2026-04-29</text><text x="512" y="96" text-anchor="end" font-size="9" fill="#6e7781">2026-05-25</text>
</svg>
