<svg xmlns="http://www.w3.org/2000/svg" viewBox="0 0 520 100" width="520" height="100">
  <style>text { font-family: -apple-system, BlinkMacSystemFont, 'Segoe UI', Roboto, sans-serif; }</style>
  <defs>
    <linearGradient id="sparkFill" x1="0" y1="0" x2="0" y2="1">
      <stop offset="0%" stop-color="#0969da" stop-opacity="0.25"/>
      <stop offset="100%" stop-color="#0969da" stop-opacity="0.02"/>
    </linearGradient>
  </defs>
  <rect width="100%" height="100%" fill="#ffffff" rx="8"/>
  <line x1="8" y1="65.5" x2="512" y2="65.5" stroke="#d8dee4" stroke-width="1"/><line x1="8" y1="51.0" x2="512" y2="51.0" stroke="#d8dee4" stroke-width="1"/><line x1="8" y1="36.5" x2="512" y2="36.5" stroke="#d8dee4" stroke-width="1"/>
  <polygon points="8,80 8.0,66.9 25.4,39.8 42.8,30.6 60.1,35.1 77.5,32.7 94.9,37.2 112.3,79.3 129.7,77.9 147.0,37.0 164.4,27.7 181.8,39.1 199.2,29.8 216.6,34.4 233.9,77.6 251.3,76.2 268.7,34.1 286.1,31.7 303.4,36.3 320.8,27.0 338.2,31.5 355.6,80.0 373.0,78.3 390.3,38.2 407.7,22.0 425.1,74.8 442.5,44.8 459.9,28.7 477.2,78.6 494.6,76.9 512.0,35.3 512,80" fill="url(#sparkFill)" />
  <polyline points="8.0,66.9 25.4,39.8 42.8,30.6 60.1,35.1 77.5,32.7 94.9,37.2 112.3,79.3 129.7,77.9 147.0,37.0 164.4,27.7 181.8,39.1 199.2,29.8 216.6,34.4 233.9,77.6 251.3,76.2 268.7,34.1 286.1,31.7 303.4,36.3 320.8,27.0 338.2,31.5 355.6,80.0 373.0,78.3 390.3,38.2 407.7,22.0 425.1,74.8 442.5,44.8 459.9,28.7 477.2,78.6 494.6,76.9 512.0,35.3" fill="none" stroke="#0969da" stroke-width="2" stroke-linecap="round" stroke-linejoin="round" stroke-dasharray="2000" stroke-dashoffset="2000"><animate attributeName="stroke-dashoffset" values="2000;0;0;2000" keyTimes="0;0.1;0.92;1" dur="12s" repeatCount="indefinite" calcMode="spline" keySplines="0.4 0 0.2 1;0.4 0 0.2 1;0.4 0 0.2 1"/></polyline>
  <circle cx="407.7" cy="22.0" r="3" fill="#0969da" opacity="0"><animate attributeName="opacity" values="0;0;1;1;0" keyTimes="0;0.08;0.1;0.92;1" dur="12s" repeatCount="indefinite"/></circle><text x="407.7" y="14.0" text-anchor="middle" font-size="10" fill="#1f2328" font-weight="600" opacity="0">531<animate attributeName="opacity" values="0;0;1;1;0" keyTimes="0;0.09;0.11;0.92;1" dur="12s" repeatCount="indefinite"/></text>
  <circle cx="512.0" cy="35.3" r="2.5" fill="#57606a"/><text x="506.0" y="28.3" text-anchor="end" font-size="9" fill="#57606a">475</text>
  <text x="8" y="96" font-size="9" fill="#6e7781">2026-04-26</text><text x="512" y="96" text-anchor="end" font-size="9" fill="#6e7781">2026-05-25</text>
</svg>
