<svg xmlns="http://www.w3.org/2000/svg" viewBox="0 0 520 252" width="520" height="252">
  <style>text { font-family: -apple-system, BlinkMacSystemFont, 'Segoe UI', Roboto, sans-serif; }</style>
  <rect width="100%" height="100%" fill="#ffffff" rx="8"/>
  <rect x="135" y="8" width="295" height="22" fill="#ffffff" rx="4"/><rect x="135" y="8" width="295.0" height="22" fill="#0969da" rx="4" opacity="0.85"/><text x="127" y="23" text-anchor="end" font-size="11" fill="#1f2328">action</text><text x="438" y="23" font-size="10" fill="#1f2328">7.1k <tspan fill="#6e7781">22%</tspan></text><rect x="135" y="38" width="295" height="22" fill="#ffffff" rx="4"/><rect x="135" y="38" width="233.9" height="22" fill="#0969da" rx="4" opacity="0.85"/><text x="127" y="53" text-anchor="end" font-size="11" fill="#1f2328">dashboard-template</text><text x="438" y="53" font-size="10" fill="#1f2328">5.6k <tspan fill="#6e7781">18%</tspan></text><rect x="135" y="68" width="295" height="22" fill="#ffffff" rx="4"/><rect x="135" y="68" width="175.7" height="22" fill="#0969da" rx="4" opacity="0.85"/><text x="127" y="83" text-anchor="end" font-size="11" fill="#1f2328">docs-site</text><text x="438" y="83" font-size="10" fill="#1f2328">4.2k <tspan fill="#6e7781">13%</tspan></text><rect x="135" y="98" width="295" height="22" fill="#ffffff" rx="4"/><rect x="135" y="98" width="167.2" height="22" fill="#0969da" rx="4" opacity="0.85"/><text x="127" y="113" text-anchor="end" font-size="11" fill="#1f2328">collector</text><text x="438" y="113" font-size="10" fill="#1f2328">4.0k <tspan fill="#6e7781">13%</tspan></text><rect x="135" y="128" width="295" height="22" fill="#ffffff" rx="4"/><rect x="135" y="128" width="132.7" height="22" fill="#0969da" rx="4" opacity="0.85"/><text x="127" y="143" text-anchor="end" font-size="11" fill="#1f2328">examples</text><text x="438" y="143" font-size="10" fill="#1f2328">3.2k <tspan fill="#6e7781">10%</tspan></text><rect x="135" y="158" width="295" height="22" fill="#ffffff" rx="4"/><rect x="135" y="158" width="115.2" height="22" fill="#0969da" rx="4" opacity="0.85"/><text x="127" y="173" text-anchor="end" font-size="11" fill="#1f2328">infra</text><text x="438" y="173" font-size="10" fill="#1f2328">2.8k <tspan fill="#6e7781">9%</tspan></text><rect x="135" y="188" width="295" height="22" fill="#ffffff" rx="4"/><rect x="135" y="188" width="101.8" height="22" fill="#0969da" rx="4" opacity="0.85"/><text x="127" y="203" text-anchor="end" font-size="11" fill="#1f2328">cli</text><text x="438" y="203" font-size="10" fill="#1f2328">2.5k <tspan fill="#6e7781">8%</tspan></text><rect x="135" y="218" width="295" height="22" fill="#ffffff" rx="4"/><rect x="135" y="218" width="94.6" height="22" fill="#0969da" rx="4" opacity="0.85"/><text x="127" y="233" text-anchor="end" font-size="11" fill="#1f2328">charts</text><text x="438" y="233" font-size="10" fill="#1f2328">2.3k <tspan fill="#6e7781">7%</tspan></text>
</svg>