<svg xmlns="http://www.w3.org/2000/svg" viewBox="0 0 385 180" width="385" height="180">
  <style>text { font-family: -apple-system, BlinkMacSystemFont, 'Segoe UI', Roboto, sans-serif; }</style>
  <rect width="100%" height="100%" fill="#ffffff" rx="8"/>
  <path d="M 90.0 12.0 A 78 78 0 0 1 167.7 96.6 L 132.7 93.6 A 42.900000000000006 42.900000000000006 0 0 0 90.0 47.1 Z" fill="#0969da" opacity="0"><animate attributeName="opacity" values="0;0.9;0.9;0" keyTimes="0;0.030;0.92;1" dur="12s" repeatCount="indefinite"/><title>reponomics/action: 7,116 (26.3%)</title></path><path d="M 167.7 96.6 A 78 78 0 0 1 103.5 166.8 L 97.4 132.3 A 42.900000000000006 42.900000000000006 0 0 0 132.7 93.6 Z" fill="#1a7f37" opacity="0"><animate attributeName="opacity" values="0;0.9;0.9;0" keyTimes="0;0.037;0.92;1" dur="12s" repeatCount="indefinite"/><title>reponomics/dashboard-template: 5,641 (20.9%)</title></path><path d="M 103.5 166.8 A 78 78 0 0 1 33.4 143.7 L 58.9 119.5 A 42.900000000000006 42.900000000000006 0 0 0 97.4 132.3 Z" fill="#af3aa6" opacity="0"><animate attributeName="opacity" values="0;0.9;0.9;0" keyTimes="0;0.043;0.92;1" dur="12s" repeatCount="indefinite"/><title>reponomics/docs-site: 4,238 (15.7%)</title></path><path d="M 33.4 143.7 A 78 78 0 0 1 13.3 76.1 L 47.8 82.3 A 42.900000000000006 42.900000000000006 0 0 0 58.9 119.5 Z" fill="#bf6a02" opacity="0"><animate attributeName="opacity" values="0;0.9;0.9;0" keyTimes="0;0.050;0.92;1" dur="12s" repeatCount="indefinite"/><title>reponomics/collector: 4,034 (14.9%)</title></path><path d="M 13.3 76.1 A 78 78 0 0 1 43.0 27.7 L 64.2 55.8 A 42.900000000000006 42.900000000000006 0 0 0 47.8 82.3 Z" fill="#cf222e" opacity="0"><animate attributeName="opacity" values="0;0.9;0.9;0" keyTimes="0;0.057;0.92;1" dur="12s" repeatCount="indefinite"/><title>reponomics/examples: 3,202 (11.9%)</title></path><path d="M 43.0 27.7 A 78 78 0 0 1 90.0 12.0 L 90.0 47.1 A 42.900000000000006 42.900000000000006 0 0 0 64.2 55.8 Z" fill="#0969da" opacity="0"><animate attributeName="opacity" values="0;0.9;0.9;0" keyTimes="0;0.063;0.92;1" dur="12s" repeatCount="indefinite"/><title>reponomics/infra: 2,779 (10.3%)</title></path>
  <text x="90" y="88" text-anchor="middle" font-size="18" font-weight="700" fill="#1f2328">27.0k</text><text x="90" y="104" text-anchor="middle" font-size="9" fill="#6e7781">total views</text>
  <circle cx="202" cy="14" r="5" fill="#0969da"/><text x="214" y="18" font-size="10" fill="#1f2328" font-weight="600" font-variant-numeric="tabular-nums">26.3%</text><text x="252" y="18" font-size="11" fill="#57606a">action</text><circle cx="202" cy="36" r="5" fill="#1a7f37"/><text x="214" y="40" font-size="10" fill="#1f2328" font-weight="600" font-variant-numeric="tabular-nums">20.9%</text><text x="252" y="40" font-size="11" fill="#57606a">dashboard-template</text><circle cx="202" cy="58" r="5" fill="#af3aa6"/><text x="214" y="62" font-size="10" fill="#1f2328" font-weight="600" font-variant-numeric="tabular-nums">15.7%</text><text x="252" y="62" font-size="11" fill="#57606a">docs-site</text><circle cx="202" cy="80" r="5" fill="#bf6a02"/><text x="214" y="84" font-size="10" fill="#1f2328" font-weight="600" font-variant-numeric="tabular-nums">14.9%</text><text x="252" y="84" font-size="11" fill="#57606a">collector</text><circle cx="202" cy="102" r="5" fill="#cf222e"/><text x="214" y="106" font-size="10" fill="#1f2328" font-weight="600" font-variant-numeric="tabular-nums">11.9%</text><text x="252" y="106" font-size="11" fill="#57606a">examples</text><circle cx="202" cy="124" r="5" fill="#0969da"/><text x="214" y="128" font-size="10" fill="#1f2328" font-weight="600" font-variant-numeric="tabular-nums">10.3%</text><text x="252" y="128" font-size="11" fill="#57606a">infra</text>
</svg>